<svg width="360" height="1028" viewBox="0 0 360 1028" fill="none" xmlns="http://www.w3.org/2000/svg">
<g filter="url(#filter0_f_7035_434)">
<circle cx="28.0747" cy="616.925" r="85.0747" fill="#7FCE84" fill-opacity="0.83"/>
</g>
<g filter="url(#filter1_f_7035_434)">
<circle cx="394.668" cy="496.618" r="170.618" fill="#36853B" fill-opacity="0.52"/>
</g>
<g filter="url(#filter2_f_7035_434)">
<circle cx="183.89" cy="573.408" r="79.9969" fill="#3D9542"/>
</g>
<g clip-path="url(#clip0_7035_434)">
<g opacity="0.3">
<path d="M313.617 520.642H370.396V562.946H313.617V520.642ZM250.96 373.204H307.74V414.915H251.248V420.364H307.74V465.054H251.248V470.502H307.74V515.193H251.248V520.642H307.74V562.946H250.96V373.204ZM313.617 420.364H370.396V465.054H313.617V420.364ZM313.617 470.502H370.396V515.192H313.617V470.502ZM370.396 414.915H313.617V373.204H370.396V414.915ZM246.27 570.395H375.085V365.754H246.27V570.395Z" stroke="black" stroke-width="0.853263" stroke-miterlimit="10" stroke-linecap="round" stroke-linejoin="round"/>
<path d="M299.602 385.676L270.956 409.383" stroke="black" stroke-width="0.853263" stroke-miterlimit="10" stroke-linecap="round" stroke-linejoin="round"/>
<path d="M356.401 432.102L327.755 455.809" stroke="black" stroke-width="0.853263" stroke-miterlimit="10" stroke-linecap="round" stroke-linejoin="round"/>
<path d="M291.699 532.365L263.053 556.072" stroke="black" stroke-width="0.853263" stroke-miterlimit="10" stroke-linecap="round" stroke-linejoin="round"/>
<path d="M284.579 392.59L271.449 403.456" stroke="black" stroke-width="0.853263" stroke-miterlimit="10" stroke-linecap="round" stroke-linejoin="round"/>
<path d="M354.219 426.67L341.089 437.536" stroke="black" stroke-width="0.853263" stroke-miterlimit="10" stroke-linecap="round" stroke-linejoin="round"/>
<path d="M290.012 539.773L276.882 550.639" stroke="black" stroke-width="0.853263" stroke-miterlimit="10" stroke-linecap="round" stroke-linejoin="round"/>
<path d="M286.06 487.42L272.931 498.286" stroke="black" stroke-width="0.853263" stroke-miterlimit="10" stroke-linecap="round" stroke-linejoin="round"/>
<path d="M353.232 533.352L340.101 544.218" stroke="black" stroke-width="0.853263" stroke-miterlimit="10" stroke-linecap="round" stroke-linejoin="round"/>
<path d="M238.852 570.26H383.072V588.176H238.852V570.26Z" stroke="black" stroke-width="0.853263" stroke-miterlimit="10" stroke-linecap="round" stroke-linejoin="round"/>
</g>
<path d="M311.312 504.036C306.435 516.229 290.141 521.588 274.918 516.006C259.694 510.422 251.306 496.01 256.182 483.816C261.058 471.621 277.352 466.263 292.575 471.846C307.799 477.429 316.188 491.841 311.312 504.036Z" fill="#21A038"/>
<path d="M256.181 483.816C261.057 471.622 277.352 466.263 292.575 471.846C307.799 477.43 316.188 491.841 311.312 504.036C306.436 516.23 290.142 521.589 274.918 516.006C259.694 510.422 251.306 496.01 256.181 483.816Z" stroke="#111311" stroke-width="0.830991" stroke-miterlimit="10" stroke-linecap="round" stroke-linejoin="round"/>
<path d="M265.476 502.221C265.476 502.221 259.358 503.248 257.157 499.614C254.956 495.979 260.342 486.672 265.383 482.7C270.422 478.728 283.129 478.14 289.446 479.539C295.763 480.938 302.674 486.785 302.996 492.192C303.318 497.6 300.452 502.517 300.083 504.174C299.713 505.83 295.97 505.42 295.554 504.527C295.137 503.632 288.848 490.501 287.323 489.769C285.798 489.036 284.57 490.032 282.695 490.817C280.82 491.601 266.761 495.999 266.761 495.999L265.476 502.221Z" fill="#111311" stroke="#111311" stroke-width="0.830991" stroke-miterlimit="10" stroke-linecap="round" stroke-linejoin="round"/>
<path d="M268.146 639.648L268.012 621.923L259.266 642.463L259.266 642.465C257.508 644.856 255.388 647.961 254.273 650.433C252.16 655.122 257.351 671.245 258.056 669.683C258.759 668.12 264.363 647.669 264.363 647.669C264.363 647.669 265.363 644.162 265.524 641.34L268.146 639.648Z" fill="#9D9D9D" stroke="#111311" stroke-width="0.830991" stroke-miterlimit="10" stroke-linecap="round" stroke-linejoin="round"/>
<path d="M264.764 651.612C264.764 651.612 259.053 652.942 257.351 664.936C256.886 668.207 256.497 703.05 255.681 708.797L252.298 732.634L282.342 735.908L289.263 713.679L288.901 736.135L319.034 739.419C319.034 739.419 327.004 704.834 327.851 700.525C328.698 696.216 332.118 687.053 333.267 673.975C334.418 660.896 332.354 655.537 332.354 655.537L266.088 647.092L264.764 651.612Z" fill="#111311" stroke="#111311" stroke-width="0.830991" stroke-miterlimit="10" stroke-linecap="round" stroke-linejoin="round"/>
<path d="M285.545 533.181C285.545 533.181 269.741 544.112 266.214 547.195C262.557 550.392 261.114 570.061 263.248 583.956C265.382 597.852 266.724 619.121 266.332 623.348C265.941 627.574 263.04 652.785 263.04 652.785C263.04 652.785 286.647 665.831 302.333 664.989C318.022 664.145 329.865 658.611 329.865 658.611C329.865 658.611 333.531 615.252 334.867 605.791C336.203 596.332 338.609 564.788 338.136 553.636C337.663 542.484 331.522 535.194 326.367 533.988C321.21 532.783 301.721 529.718 301.721 529.718L285.545 533.181Z" fill="#9D9D9D" stroke="#111311" stroke-width="0.830991" stroke-miterlimit="10" stroke-linecap="round" stroke-linejoin="round"/>
<path d="M277.174 529.857C277.174 529.857 280.896 549.085 281.926 549.384C282.957 549.684 286.19 547.056 286.19 547.056L300.025 530.124L297.911 512.87C297.911 512.87 294.096 521.461 288.361 526.61C282.628 531.758 277.174 529.857 277.174 529.857Z" fill="#9D9D9D" stroke="#111311" stroke-width="0.830991" stroke-miterlimit="10" stroke-linecap="round" stroke-linejoin="round"/>
<path d="M289.899 527.41L279.6 539.981L277.026 529.706L289.899 527.41Z" fill="#111311" stroke="#111311" stroke-width="0.830991" stroke-miterlimit="10" stroke-linecap="round" stroke-linejoin="round"/>
<path d="M287.986 484.491C287.986 484.491 279.869 489.736 273.751 491.297C267.63 492.859 264.609 493.365 264.609 493.365C264.609 493.365 264.725 505.778 264.767 509.265C264.809 512.753 265.179 518.645 267.205 521.373C269.231 524.102 274.203 530.635 276.629 532.433C279.055 534.23 283.718 533.485 285.136 532.943C286.553 532.401 295.922 521.162 296.551 519.559C297.181 517.956 297.354 512.959 297.354 512.959C297.354 512.959 301.058 511.412 301.858 509.549C302.659 507.687 302.483 500.422 301.563 499.347C300.643 498.271 298.771 499.181 298.351 500.25C297.931 501.319 296.907 502.879 296.907 502.879C296.907 502.879 297.183 499.984 296.38 498.085C295.577 496.186 295.674 495.5 293.457 493.168C291.241 490.837 287.986 484.491 287.986 484.491Z" fill="#9D9D9D" stroke="#111311" stroke-width="0.830991" stroke-miterlimit="10" stroke-linecap="round" stroke-linejoin="round"/>
<path d="M275.273 510.398L275.143 514.203C275.143 514.203 279.574 514.547 281.894 512.538" stroke="#111311" stroke-width="0.830991" stroke-miterlimit="10" stroke-linecap="round" stroke-linejoin="round"/>
<path d="M272.251 517.784C272.251 517.784 275.312 519.261 280.488 518.265C285.664 517.27 287.383 513.757 287.383 513.757" stroke="#111311" stroke-width="0.830991" stroke-miterlimit="10" stroke-linecap="round" stroke-linejoin="round"/>
<path d="M273.348 500.975C273.348 500.975 267.773 498.344 265.572 501.65" stroke="#111311" stroke-width="0.830991" stroke-miterlimit="10" stroke-linecap="round" stroke-linejoin="round"/>
<path d="M279.575 499.545C279.575 499.545 283.958 496.053 287.846 498.14" stroke="#111311" stroke-width="0.830991" stroke-miterlimit="10" stroke-linecap="round" stroke-linejoin="round"/>
<path d="M272.086 506.1C272.347 507.204 272.118 508.2 271.575 508.321C271.034 508.442 270.381 507.644 270.12 506.539C269.861 505.433 270.088 504.439 270.631 504.317C271.174 504.197 271.825 504.994 272.086 506.1Z" fill="#111311"/>
<path d="M285.147 503.801C285.408 504.906 285.179 505.9 284.636 506.022C284.094 506.142 283.443 505.345 283.181 504.24C282.921 503.134 283.149 502.139 283.692 502.019C284.235 501.898 284.885 502.695 285.147 503.801Z" fill="#111311"/>
<path d="M311.257 556.263L316.641 600.134C316.641 600.134 315.762 602.156 315.984 603.454C316.206 604.752 316.26 605.817 316.26 605.817C316.26 605.817 310.807 622.171 306.639 632.094C302.471 642.018 289.537 663.255 289.587 665.806C289.638 668.357 284.686 686.887 285.755 687.855C286.824 688.824 289.412 690.388 290.201 690.477C290.989 690.566 294.483 691.383 295.666 691.516C296.849 691.649 301.217 691.929 302.236 690.346C303.254 688.765 303.201 687.698 301.96 687.983C300.719 688.267 298.718 688.254 298.718 688.254L298.159 686.494C298.159 686.494 300.15 679.296 299.911 673.754C299.671 668.213 299.535 666.289 299.535 666.289C299.535 666.289 330.018 626.666 332.095 618.84C334.171 611.015 336.956 602.42 337.501 598.452C338.047 594.484 339.012 558.325 338.374 554.224C337.737 550.123 337.691 546.088 334.995 542.391C332.298 538.695 330.128 538.45 328.55 538.273" fill="#9D9D9D"/>
<path d="M311.257 556.263L316.641 600.134C316.641 600.134 315.762 602.156 315.984 603.454C316.206 604.752 316.26 605.817 316.26 605.817C316.26 605.817 310.807 622.171 306.639 632.094C302.471 642.018 289.537 663.255 289.587 665.806C289.638 668.357 284.686 686.887 285.755 687.855C286.824 688.824 289.412 690.388 290.201 690.477C290.989 690.566 294.483 691.383 295.666 691.516C296.849 691.649 301.217 691.929 302.236 690.346C303.254 688.765 303.201 687.698 301.96 687.983C300.719 688.267 298.718 688.254 298.718 688.254L298.159 686.494C298.159 686.494 300.15 679.296 299.911 673.754C299.671 668.213 299.535 666.289 299.535 666.289C299.535 666.289 330.018 626.666 332.095 618.84C334.171 611.015 336.956 602.42 337.501 598.452C338.047 594.484 339.012 558.325 338.374 554.224C337.737 550.123 337.691 546.088 334.995 542.391C332.298 538.695 330.128 538.45 328.55 538.273" stroke="#111311" stroke-width="0.830991" stroke-miterlimit="10" stroke-linecap="round" stroke-linejoin="round"/>
<path d="M317.924 605.013C317.924 605.013 324.374 602.99 329.257 606.081" stroke="#111311" stroke-width="0.830991" stroke-miterlimit="10" stroke-linecap="round" stroke-linejoin="round"/>
<path d="M322.436 600.937C322.436 600.937 329.732 599.886 333.382 605.825" stroke="#111311" stroke-width="0.830991" stroke-miterlimit="10" stroke-linecap="round" stroke-linejoin="round"/>
<path d="M310.015 624.343C309.015 626.949 308.004 629.487 307.058 631.706C302.811 641.67 289.641 663.001 289.689 665.56C289.737 668.121 284.684 686.726 285.768 687.698C286.853 688.669 289.482 690.236 290.284 690.324C291.086 690.413 294.635 691.229 295.838 691.362C297.04 691.495 301.478 691.771 302.515 690.183C303.552 688.593 303.499 687.522 302.237 687.81C300.977 688.096 298.942 688.085 298.942 688.085L298.376 686.32C298.376 686.32 300.408 679.091 300.171 673.529C299.935 667.968 299.799 666.036 299.799 666.036C299.799 666.036 314.705 646.912 324.559 632.559C320.33 626.574 314.186 624.803 310.015 624.343Z" fill="#9D9D9D" stroke="#111311" stroke-width="0.830991" stroke-miterlimit="10" stroke-linecap="round" stroke-linejoin="round"/>
<path d="M294.423 686.839C294.423 686.839 296.201 688.846 296.823 689.491C297.445 690.136 297.6 690.73 298.904 691.037" fill="#9D9D9D"/>
<path d="M294.423 686.839C294.423 686.839 296.201 688.846 296.823 689.491C297.445 690.136 297.6 690.73 298.904 691.037" stroke="#111311" stroke-width="0.830991" stroke-miterlimit="10" stroke-linecap="round" stroke-linejoin="round"/>
<path d="M290.184 687.368C290.184 687.368 292.969 690.065 294.827 690.754L290.184 687.368Z" fill="#9D9D9D"/>
<path d="M290.184 687.368C290.184 687.368 292.969 690.065 294.827 690.754" stroke="#111311" stroke-width="0.830991" stroke-miterlimit="10" stroke-linecap="round" stroke-linejoin="round"/>
<path d="M286.83 686.467C286.83 686.467 288.014 688.55 289.515 689.457L286.83 686.467Z" fill="#9D9D9D"/>
<path d="M286.83 686.467C286.83 686.467 288.014 688.55 289.515 689.457" stroke="#111311" stroke-width="0.830991" stroke-miterlimit="10" stroke-linecap="round" stroke-linejoin="round"/>
<path d="M263.922 646.4C263.922 646.4 263.862 652.101 264.025 653.044C264.187 653.988 263.521 655.611 263.323 659.136C263.125 662.662 263.485 666.403 261.401 665.556C259.317 664.706 259.13 658.671 259.487 657.167C259.843 655.664 257.875 650.818 257.875 650.818" fill="#9D9D9D"/>
<path d="M263.922 646.4C263.922 646.4 263.862 652.101 264.025 653.044C264.187 653.988 263.521 655.611 263.323 659.136C263.125 662.662 263.485 666.403 261.401 665.556C259.317 664.706 259.13 658.671 259.487 657.167C259.843 655.664 257.875 650.818 257.875 650.818" stroke="#111311" stroke-width="0.830991" stroke-miterlimit="10" stroke-linecap="round" stroke-linejoin="round"/>
<path d="M225.42 617.423C223.783 612.851 214.938 551.316 214.938 551.316C210.844 559.755 203.686 602.625 203.686 602.625L202.681 625.628L201.846 629.878C206.424 627.253 217.465 622.257 223.355 630.888C223.514 630.478 223.636 630.131 223.713 629.856C225.298 624.187 227.057 621.996 225.42 617.423Z" fill="#21A038"/>
<path d="M225.42 617.423C223.783 612.851 214.938 551.316 214.938 551.316C210.844 559.755 203.686 602.625 203.686 602.625L202.681 625.628L201.846 629.878C206.424 627.253 217.465 622.257 223.355 630.888C223.514 630.478 223.636 630.131 223.713 629.856C225.298 624.187 227.057 621.996 225.42 617.423Z" stroke="#111311" stroke-width="0.89071" stroke-miterlimit="10" stroke-linecap="round" stroke-linejoin="round"/>
<path d="M220.214 622.647C221.338 622.955 222.414 623.382 223.397 623.961" stroke="#111311" stroke-width="0.89071" stroke-miterlimit="10" stroke-linecap="round" stroke-linejoin="round"/>
<path d="M204.199 623.037C204.199 623.037 210.096 621.393 216.126 621.944" stroke="#111311" stroke-width="0.89071" stroke-miterlimit="10" stroke-linecap="round" stroke-linejoin="round"/>
<path d="M222.634 620.485C222.634 620.485 218.069 616.837 213.915 617.759" stroke="#111311" stroke-width="0.89071" stroke-miterlimit="10" stroke-linecap="round" stroke-linejoin="round"/>
<path d="M109.152 731.173L115.941 684.901L122.284 659.757L196.729 664.092L201.075 682.951L198.095 740.125L160.577 736.606L158.159 698.325L155.681 701.756L150.782 734.873L109.152 731.173Z" fill="#111311" stroke="#111311" stroke-width="0.89071" stroke-miterlimit="10" stroke-linecap="round" stroke-linejoin="round"/>
<path d="M155.441 535.767C155.441 535.767 122.354 541.546 120.28 542.362C118.206 543.177 118.774 573.739 120.432 585.007C122.09 596.276 124.433 637.308 124.433 637.308L120.332 666.421C120.332 666.421 151.622 670.171 164.381 669.754C177.141 669.338 191.351 667.037 191.351 667.037C191.351 667.037 199 641.693 199.573 624.573C200.146 607.452 209.822 565.731 210.233 562.941C210.645 560.151 213.908 549.951 213.908 549.951C213.908 549.951 190.941 540.114 184.892 538.738C178.844 537.361 164.452 535.604 155.441 535.767Z" fill="#21A038" stroke="#111311" stroke-width="0.89071" stroke-miterlimit="10" stroke-linecap="round" stroke-linejoin="round"/>
<path d="M147 543.017C147 543.017 149.951 554.676 158.814 562.493" stroke="#111311" stroke-width="0.89071" stroke-miterlimit="10" stroke-linecap="round" stroke-linejoin="round"/>
<path d="M181.07 544.671C181.07 544.671 178.838 548.832 175.504 553.26" stroke="#111311" stroke-width="0.89071" stroke-miterlimit="10" stroke-linecap="round" stroke-linejoin="round"/>
<path d="M174.647 555.549L172.701 557.726" stroke="#111311" stroke-width="0.89071" stroke-miterlimit="10" stroke-linecap="round" stroke-linejoin="round"/>
<path d="M150.881 665.12C158.548 665.508 172.645 665.816 182.058 663.605" stroke="#111311" stroke-width="0.89071" stroke-miterlimit="10" stroke-linecap="round" stroke-linejoin="round"/>
<path d="M145.438 664.796C145.438 664.796 146.307 664.87 147.806 664.963" stroke="#111311" stroke-width="0.89071" stroke-miterlimit="10" stroke-linecap="round" stroke-linejoin="round"/>
<path d="M177.72 659.584C167.566 659.965 152.272 659.677 140.777 655.659" stroke="#111311" stroke-width="0.89071" stroke-miterlimit="10" stroke-linecap="round" stroke-linejoin="round"/>
<path d="M188.537 659.162C188.537 659.162 185.955 659.413 181.83 659.584" stroke="#111311" stroke-width="0.89071" stroke-miterlimit="10" stroke-linecap="round" stroke-linejoin="round"/>
<path d="M189.182 645.197C182.774 648.09 170.609 652.841 158.918 653.315" stroke="#111311" stroke-width="0.89071" stroke-miterlimit="10" stroke-linecap="round" stroke-linejoin="round"/>
<path d="M193.806 643.019C193.806 643.019 192.93 643.479 191.382 644.204" stroke="#111311" stroke-width="0.89071" stroke-miterlimit="10" stroke-linecap="round" stroke-linejoin="round"/>
<path d="M151.067 524.564L150.419 540.779C150.419 540.779 153.727 552.882 164.874 553.167C175.806 553.446 179.184 539.317 179.184 539.317L179.099 522.129C179.099 522.129 168.557 529.459 163.307 528.244C158.058 527.028 151.067 524.564 151.067 524.564Z" fill="#9D9D9D" stroke="#111311" stroke-width="0.89071" stroke-miterlimit="10" stroke-linecap="round" stroke-linejoin="round"/>
<path d="M141.821 504.852C141.821 504.852 140.178 502.075 138.403 504.281C136.627 506.486 137.606 512.945 140.146 514.557C142.685 516.169 143.401 516.236 143.401 516.236C143.401 516.236 145.689 522.818 147.084 524.822C148.479 526.825 159.221 536.698 162.007 537.46C164.793 538.22 168.971 537.739 170.774 536.16C172.578 534.582 179.09 523.208 180.222 520.443C181.356 517.678 181.566 517.074 181.821 515.35C182.076 513.626 182.174 512.138 182.174 512.138C182.174 512.138 185.551 508.085 186.298 504.66C187.046 501.235 186.594 498.57 184.88 497.91C183.166 497.249 180.715 500.764 180.715 500.764L177.083 481.198C177.083 481.198 175.702 475.824 174.006 475.041C172.31 474.257 159.326 474.661 153.62 476.496C147.914 478.333 142.308 480.303 141.568 482.855C140.829 485.408 141.821 504.852 141.821 504.852Z" fill="#9D9D9D" stroke="#111311" stroke-width="0.89071" stroke-miterlimit="10" stroke-linecap="round" stroke-linejoin="round"/>
<path d="M154.453 479.324C154.453 479.324 143.922 480.476 143.109 482.151C142.297 483.824 141.071 487.016 141.817 489.614C142.562 492.213 142.148 505.204 142.148 505.204C142.148 505.204 143.224 509.39 142.193 508.71C141.164 508.03 140.944 503.147 140.658 502.537C140.372 501.927 136.903 492.266 135.928 488.673C134.953 485.081 138.408 482.098 139.265 481.401C140.121 480.703 141.035 479.622 141.035 479.622C141.035 479.622 140.929 473.971 143.713 471.704C146.498 469.437 164.902 467.273 166.473 466.837C168.045 466.4 170.014 463.279 171.428 462.634C172.842 461.989 176.459 464.272 178.166 469.295C179.871 474.317 179.487 475.643 178.601 476.531L177.717 477.421C177.717 477.421 180.261 478.048 180.836 481.798C181.412 485.548 182.387 489.14 181.962 492.018C181.536 494.895 180.436 500.402 180.351 500.977C180.266 501.553 179.698 500.947 179.425 498.976C179.151 497.005 176.207 482.531 175.691 480.926C175.175 479.322 174.473 477.7 174.187 477.09C173.9 476.48 158.579 475.627 154.453 479.324Z" fill="#111311" stroke="#111311" stroke-width="0.89071" stroke-miterlimit="10" stroke-linecap="round" stroke-linejoin="round"/>
<path d="M162.235 537.4C165.037 538.163 169.238 537.68 171.052 536.095C172.866 534.509 179.414 523.086 180.554 520.309C181.693 517.531 181.904 516.924 182.161 515.192C182.417 513.461 182.517 511.965 182.517 511.965L181.443 500.025C181.336 500.16 181.249 500.273 181.183 500.361C181.02 504.002 180.68 511.03 180.444 512.023C180.123 513.372 178.465 514.721 176.992 514.833C175.517 514.946 168.853 513.193 165.822 513.159C162.791 513.126 161.668 514.148 159.208 515.173C156.749 516.196 151.638 518.725 150.385 518.984C149.132 519.243 146.983 518.164 146.208 516.837C145.432 515.511 142.787 504.777 142.787 504.777C142.704 505.442 141.885 506.651 141.885 506.651L143.526 516.084C143.526 516.084 145.827 522.695 147.23 524.707C148.632 526.72 159.433 536.636 162.235 537.4Z" fill="#111311"/>
<path d="M162.235 537.4C165.037 538.163 169.238 537.68 171.052 536.095C172.866 534.509 179.414 523.086 180.554 520.309C181.693 517.531 181.904 516.924 182.161 515.192C182.417 513.461 182.517 511.965 182.517 511.965L181.443 500.025C181.336 500.16 181.249 500.273 181.183 500.361C181.02 504.002 180.68 511.03 180.444 512.023C180.123 513.372 178.465 514.721 176.992 514.833C175.517 514.946 168.853 513.193 165.822 513.159C162.791 513.126 161.668 514.148 159.208 515.173C156.749 516.196 151.638 518.725 150.385 518.984C149.132 519.243 146.983 518.164 146.208 516.837C145.432 515.511 142.787 504.777 142.787 504.777C142.704 505.442 141.885 506.651 141.885 506.651L143.526 516.084C143.526 516.084 145.827 522.695 147.23 524.707C148.632 526.72 159.433 536.636 162.235 537.4Z" stroke="#111311" stroke-width="0.89071" stroke-miterlimit="10" stroke-linecap="round" stroke-linejoin="round"/>
<path d="M165.716 495.909C165.716 495.909 163.419 498.011 163.687 498.778C163.956 499.547 167.036 513.429 166.709 514.875C166.383 516.32 164.305 516.844 162.768 516.189C161.23 515.536 160.727 511.045 160.727 511.045" fill="#9D9D9D"/>
<path d="M165.716 495.909C165.716 495.909 163.419 498.011 163.687 498.778C163.956 499.547 167.036 513.429 166.709 514.875C166.383 516.32 164.305 516.844 162.768 516.189C161.23 515.536 160.727 511.045 160.727 511.045" stroke="#111311" stroke-width="0.89071" stroke-miterlimit="10" stroke-linecap="round" stroke-linejoin="round"/>
<path d="M167.855 494.916C167.855 494.916 172.558 492.422 176.161 494.775" stroke="#111311" stroke-width="2.67213" stroke-miterlimit="10" stroke-linecap="round" stroke-linejoin="round"/>
<path d="M156.18 496.429C156.18 496.429 149.631 494.073 146.216 498.987" stroke="#111311" stroke-width="2.67213" stroke-miterlimit="10" stroke-linecap="round" stroke-linejoin="round"/>
<path d="M154.824 502.527C154.961 503.565 154.555 504.482 153.92 504.575C153.284 504.667 152.658 503.899 152.521 502.861C152.384 501.823 152.79 500.906 153.425 500.814C154.061 500.721 154.688 501.489 154.824 502.527Z" fill="#111311"/>
<path d="M152.499 502.862C152.341 501.826 152.738 500.911 153.386 500.817C154.035 500.723 154.688 501.486 154.847 502.522C155.005 503.557 154.608 504.473 153.959 504.567C153.311 504.661 152.658 503.897 152.499 502.862Z" stroke="#111311" stroke-width="0.89071" stroke-miterlimit="10" stroke-linecap="round" stroke-linejoin="round"/>
<path d="M171.288 500.049C171.424 501.087 171.02 502.004 170.383 502.096C169.747 502.188 169.121 501.42 168.986 500.383C168.848 499.345 169.253 498.428 169.889 498.336C170.526 498.243 171.152 499.011 171.288 500.049Z" fill="#111311"/>
<path d="M168.964 500.387C168.806 499.352 169.203 498.436 169.851 498.342C170.499 498.248 171.153 499.012 171.311 500.047C171.469 501.083 171.072 501.998 170.424 502.092C169.776 502.186 169.122 501.423 168.964 500.387Z" stroke="#111311" stroke-width="0.89071" stroke-miterlimit="10" stroke-linecap="round" stroke-linejoin="round"/>
<path d="M157.54 521.474C157.54 521.474 165.891 524.158 171.459 518.976" stroke="#111311" stroke-width="0.89071" stroke-miterlimit="10" stroke-linecap="round" stroke-linejoin="round"/>
<path d="M224.719 629.844C224.685 629.969 224.638 630.112 224.587 630.264C224.638 630.113 224.685 629.969 224.719 629.844Z" stroke="#111311" stroke-width="0.89071" stroke-miterlimit="10" stroke-linecap="round" stroke-linejoin="round"/>
<path d="M224.299 630.226C218.296 621.541 207.02 626.581 202.345 629.227L197.483 650.263L195.931 654.16C195.931 654.16 186.922 662.207 185.693 663.91C184.464 665.613 182.716 666.864 181.412 667.752C180.108 668.64 177.484 669.202 177.114 670.38C176.745 671.558 180.513 672.519 181.758 672.029C183.003 671.54 186.366 668.621 186.366 668.621L183.865 673.642L198.096 681.851C198.096 681.851 199.544 677.339 200.343 674.584C201.141 671.829 202.69 665.306 203.059 664.127C203.419 662.979 221.974 636.774 224.496 629.702C224.438 629.864 224.374 630.036 224.299 630.226Z" fill="#9D9D9D" stroke="#111311" stroke-width="0.89071" stroke-miterlimit="10" stroke-linecap="round" stroke-linejoin="round"/>
<path d="M119.347 541.84C119.347 541.84 114.978 545.249 113.663 548.948C112.348 552.647 93.5941 598.728 89.6848 605.601C85.7763 612.474 84.5526 618.194 85.8631 621.136C87.1746 624.077 114.3 649.02 114.3 649.02C114.3 649.02 116.108 660.46 116.656 663.33C117.203 666.199 118.224 671.124 118.224 671.124L130.898 666.491C130.898 666.491 132.811 669.289 134.163 670.625C135.516 671.96 137.336 672.737 137.893 671.583C138.449 670.427 136.653 666.836 136.653 666.836C136.653 666.836 135.857 664.346 135.956 662.343C136.056 660.34 133.716 656.496 132.832 654.601C131.949 652.706 123.556 645.269 123.556 645.269L108.557 612.824L119.514 584.315C119.514 584.315 117.01 549.87 119.347 541.84Z" fill="#9D9D9D" stroke="#111311" stroke-width="0.89071" stroke-miterlimit="10" stroke-linecap="round" stroke-linejoin="round"/>
<path d="M107.761 612.692L119.205 588.767C119.205 588.767 116.128 549.857 118.445 541.843C118.445 541.843 114.107 545.245 112.803 548.936C111.499 552.627 92.899 598.617 89.0213 605.476C85.1437 612.336 83.9302 618.045 85.2335 620.981C85.6024 621.815 87.7367 625.554 92.4422 628.942C94.5878 625.65 100.043 618.045 109.857 618.279L107.761 612.692Z" fill="#21A038" stroke="#111311" stroke-width="0.89071" stroke-miterlimit="10" stroke-linecap="round" stroke-linejoin="round"/>
<path d="M94.0103 609.753C94.0103 609.753 100.065 609.453 105.26 612.312" stroke="#111311" stroke-width="0.89071" stroke-miterlimit="10" stroke-linecap="round" stroke-linejoin="round"/>
<path d="M102.14 608.797C102.14 608.797 106.912 610.653 108.422 612.653" stroke="#111311" stroke-width="0.89071" stroke-miterlimit="10" stroke-linecap="round" stroke-linejoin="round"/>
<path d="M203.683 649.385C203.683 649.385 189.477 678.686 191.347 695.389C193.217 712.09 194.301 732.246 194.301 732.246L247.968 737.294C247.968 737.294 256.493 717.672 257.288 705.491C258.081 693.31 258.35 679.595 258.35 679.595L259.842 644.455L206.352 639.423L203.683 649.385Z" fill="#111311" stroke="#111311" stroke-width="0.853263" stroke-miterlimit="10" stroke-linecap="round" stroke-linejoin="round"/>
<path d="M225.892 681.746C225.892 681.746 232.225 701.902 234.207 717.399C236.189 732.896 235.684 735.613 235.684 735.613" stroke="#111311" stroke-width="0.853263" stroke-miterlimit="10" stroke-linecap="round" stroke-linejoin="round"/>
<path d="M233.578 699.012C233.578 699.012 244.029 691.625 248.106 682.018" stroke="#111311" stroke-width="0.853263" stroke-miterlimit="10" stroke-linecap="round" stroke-linejoin="round"/>
<path d="M244.854 561.743L218.802 567.981C218.802 567.981 225.949 583.651 226.322 605.161C226.694 626.671 222.798 648.147 222.798 648.147C222.798 648.147 228.814 652.789 241.314 652.49C253.815 652.191 258.392 645.404 258.392 645.404C258.392 645.404 261.891 609.821 259.054 595.297C256.216 580.774 244.854 561.743 244.854 561.743Z" fill="#21A038" stroke="#111311" stroke-width="0.853263" stroke-miterlimit="10" stroke-linecap="round" stroke-linejoin="round"/>
<path d="M213.486 495.3C213.486 495.3 207.458 494.231 204.006 501.123C200.555 508.015 190.251 532.22 191.013 537.83C191.776 543.44 194.754 545.566 195.295 551.657C195.834 557.75 192.496 561.129 192.496 561.129C192.496 561.129 194.328 564.657 199.756 565.334C205.186 566.012 213.916 562.3 219.53 561.485C225.145 560.67 237.31 560.638 244.988 560.183C252.665 559.729 254.989 554.074 254.989 554.074C254.989 554.074 249.798 554.09 249.889 550.743C249.982 547.395 255.695 535.345 255.003 526.553C254.313 517.762 243.364 508.007 238.61 503.197C233.857 498.388 229.321 494.438 223.732 493.745C218.143 493.052 214.716 493.234 213.486 495.3Z" fill="#111311" stroke="#111311" stroke-width="0.853263" stroke-miterlimit="10" stroke-linecap="round" stroke-linejoin="round"/>
<path d="M206.614 525.905C206.614 525.905 200.885 533.998 200.593 541.617C200.302 549.235 205.717 550.255 206.931 549.374" stroke="#111311" stroke-width="0.853263" stroke-miterlimit="10" stroke-linecap="round" stroke-linejoin="round"/>
<path d="M239.2 516.904C239.2 516.904 249.677 529.232 250.397 540.965" stroke="#111311" stroke-width="0.853263" stroke-miterlimit="10" stroke-linecap="round" stroke-linejoin="round"/>
<path d="M218.76 546.25L222.248 562.043C222.248 562.043 231.852 576.712 236.98 575.251C242.108 573.789 239.079 559.729 239.148 557.793C239.218 555.857 238.871 546.287 238.871 546.287C238.871 546.287 234.805 551.557 232.614 551.351C230.422 551.145 218.76 546.25 218.76 546.25Z" fill="#9D9D9D" stroke="#111311" stroke-width="0.853263" stroke-miterlimit="10" stroke-linecap="round" stroke-linejoin="round"/>
<path d="M218.877 505.975C218.877 505.975 208.016 521.792 207.734 524.069C207.451 526.347 212.477 540.999 213.989 543.977C215.502 546.955 227.595 554.296 230.448 554.741C233.302 555.187 236.59 552.129 237.593 549.563C238.595 547 242.355 540.08 242.663 536.06C242.778 534.559 239.65 517.269 238.237 516.25C236.823 515.23 218.877 505.975 218.877 505.975Z" fill="#9D9D9D" stroke="#111311" stroke-width="0.853263" stroke-miterlimit="10" stroke-linecap="round" stroke-linejoin="round"/>
<path d="M221.656 529.761C221.656 529.761 218.489 527.958 216.264 530.757" stroke="#111311" stroke-width="0.853263" stroke-miterlimit="10" stroke-linecap="round" stroke-linejoin="round"/>
<path d="M230.774 527.493C230.774 527.493 231.784 523.975 235.799 525.545" stroke="#111311" stroke-width="0.853263" stroke-miterlimit="10" stroke-linecap="round" stroke-linejoin="round"/>
<path d="M220.113 524.892C220.113 524.892 214.889 523.864 212.956 527.409" stroke="#111311" stroke-width="0.853263" stroke-miterlimit="10" stroke-linecap="round" stroke-linejoin="round"/>
<path d="M227.534 522.312C227.534 522.312 230.749 518.681 234.609 520.592" stroke="#111311" stroke-width="0.853263" stroke-miterlimit="10" stroke-linecap="round" stroke-linejoin="round"/>
<path d="M230.955 535.107C230.955 535.107 229.012 537.47 226.564 536.444" stroke="#111311" stroke-width="0.853263" stroke-miterlimit="10" stroke-linecap="round" stroke-linejoin="round"/>
<path d="M235.684 537.037C235.684 537.037 231.811 541.724 222.753 541.577C222.753 541.577 228.149 546.549 231.769 545.714C235.391 544.88 235.684 537.037 235.684 537.037Z" fill="#9D9D9D" stroke="#111311" stroke-width="0.853263" stroke-miterlimit="10" stroke-linecap="round" stroke-linejoin="round"/>
<path d="M209.648 532.861C209.648 532.861 206.92 531.204 206.014 534.856C205.109 538.508 212.425 540.48 212.425 540.48L209.648 532.861Z" fill="#9D9D9D" stroke="#111311" stroke-width="0.853263" stroke-miterlimit="10" stroke-linecap="round" stroke-linejoin="round"/>
<path d="M240.399 522.97C240.399 522.97 240.579 521.494 241.985 522.033C243.393 522.571 245.378 527.198 244.864 529.767C244.348 532.335 242.628 532.195 242.628 532.195L240.399 522.97Z" fill="#9D9D9D" stroke="#111311" stroke-width="0.853263" stroke-miterlimit="10" stroke-linecap="round" stroke-linejoin="round"/>
<path d="M214.304 560.371C214.304 560.371 193.364 572.023 192.245 574.367C191.125 576.713 196.418 649.916 196.418 649.916C196.418 649.916 172.437 692.106 176.13 700.168C179.823 708.231 199.889 717.515 200.71 718.995C201.532 720.475 214.55 683.363 219.924 669.341C225.299 655.318 234.392 629.916 236.215 617.654C238.038 605.392 235.232 588.656 234.234 583.131C233.237 577.604 231.404 567.968 231.404 567.968L214.304 560.371Z" fill="#111311" stroke="#111311" stroke-width="0.853263" stroke-miterlimit="10" stroke-linecap="round" stroke-linejoin="round"/>
<path d="M219.13 552.789C219.13 552.789 231.828 567.959 231.058 568.575C230.289 569.19 220.789 580.377 220.789 580.377L210.372 560.998L219.13 552.789Z" fill="#111311" stroke="#111311" stroke-width="0.853263" stroke-miterlimit="10" stroke-linecap="round" stroke-linejoin="round"/>
<path d="M242.423 568.965C242.423 568.965 252.433 585.338 256.052 596.718C259.67 608.098 259.626 627.708 258.703 635.323L256.962 649.69C256.962 649.69 257.663 686.531 258.575 692.747C259.487 698.963 260.758 710.468 260.758 710.468C260.758 710.468 262.819 709.966 263.577 702.335C264.334 694.703 265.454 663.466 264.639 650.954C263.823 638.443 265.334 617.974 264.293 614.196L263.251 610.418L281.494 606.744C281.494 606.744 271.789 595.244 270.16 578.908C269.419 571.475 266.288 567.235 264.335 565.471C262.384 563.707 246.951 560.47 244.295 560.39C241.64 560.309 242.423 568.965 242.423 568.965Z" fill="#111311" stroke="#111311" stroke-width="0.853263" stroke-miterlimit="10" stroke-linecap="round" stroke-linejoin="round"/>
<path d="M240.563 569.087C240.563 569.087 241.35 566.864 242.319 567.309C243.288 567.753 251.261 573.626 252.17 573.18C253.079 572.736 244.96 559.784 243.322 557.863C241.684 555.942 239.958 554.72 239.958 554.72L239.545 558.039L240.563 569.087Z" fill="#111311" stroke="#111311" stroke-width="0.853263" stroke-miterlimit="10" stroke-linecap="round" stroke-linejoin="round"/>
<path d="M257.247 570.902C257.247 570.902 261.116 591.034 260.987 599.536L257.247 570.902Z" fill="#9D9D9D"/>
<path d="M257.247 570.902C257.247 570.902 261.116 591.034 260.987 599.536" stroke="#111311" stroke-width="0.853263" stroke-miterlimit="10" stroke-linecap="round" stroke-linejoin="round"/>
<path d="M256.476 610.566C256.476 610.566 261.701 596.613 262.635 595.834C263.569 595.054 270.704 592.691 271.273 592.6C271.843 592.51 275.85 596.207 276.451 596.987C277.052 597.765 279.84 600.048 279.146 601.138C278.452 602.23 276.764 601.204 275.798 601.113C274.833 601.023 269.907 603.594 269.578 603.996C269.248 604.399 267.286 607.826 266.61 608.773C265.934 609.721 256.476 610.566 256.476 610.566Z" fill="#9D9D9D" stroke="#111311" stroke-width="0.853263" stroke-miterlimit="10" stroke-linecap="round" stroke-linejoin="round"/>
<path d="M277.617 598.343C277.617 598.343 275.881 597.41 275.298 597.643C274.715 597.876 267.836 600.398 267.412 600.839C266.987 601.28 266.437 601.996 266.437 601.996" stroke="#111311" stroke-width="0.853263" stroke-miterlimit="10" stroke-linecap="round" stroke-linejoin="round"/>
<path d="M264.913 599.673C264.913 599.673 266.198 598.255 267.376 597.693C268.557 597.13 272.585 595.972 273.066 595.826C273.547 595.679 275.261 596.034 275.261 596.034" stroke="#111311" stroke-width="0.853263" stroke-miterlimit="10" stroke-linecap="round" stroke-linejoin="round"/>
<path d="M272.582 594.082C272.582 594.082 264.929 596.146 264.389 596.768L263.851 597.391" stroke="#111311" stroke-width="0.853263" stroke-miterlimit="10" stroke-linecap="round" stroke-linejoin="round"/>
<path d="M264.181 608.817C264.181 608.817 271.717 604.407 274.923 603.295C278.128 602.185 284.037 605.388 285.021 607.069C286.006 608.75 286.59 616.396 285.729 621.963C284.867 627.531 284.395 629.958 280.537 630.831C276.679 631.705 271.539 631.927 271.011 632.053C270.485 632.18 271.3 621.49 268.814 615.431C266.329 609.372 264.181 608.817 264.181 608.817Z" fill="#111311" stroke="#111311" stroke-width="0.853263" stroke-miterlimit="10" stroke-linecap="round" stroke-linejoin="round"/>
<path d="M254.875 611.267C254.875 611.267 254.093 631.285 255.135 633.85C256.177 636.415 259.602 636.21 263.239 635.671C266.874 635.132 272.234 634.404 272.553 633.199C272.873 631.996 274.151 620.308 272.908 615.257C271.664 610.205 268.903 606.42 266.297 606.88C263.689 607.339 255.242 608.306 254.875 611.267Z" fill="#111311" stroke="#111311" stroke-width="0.853263" stroke-miterlimit="10" stroke-linecap="round" stroke-linejoin="round"/>
<path d="M235.122 641.82L258.035 626.103L249.794 619.18L232.184 624.696C232.184 624.696 235.456 637.164 235.122 641.82Z" fill="#9D9D9D" stroke="#111311" stroke-width="0.853263" stroke-miterlimit="10" stroke-linecap="round" stroke-linejoin="round"/>
<path d="M223.483 650.842C223.483 650.842 225.662 651.048 228.969 648.784C232.278 646.52 235.21 645.079 235.283 637.786C235.357 630.49 233.316 619.131 231.858 617.561C230.4 615.991 219.71 616.699 219.35 617.38C218.991 618.063 225.977 631.751 225.732 639.315C225.486 646.88 223.483 650.842 223.483 650.842Z" fill="#111311" stroke="#111311" stroke-width="0.853263" stroke-miterlimit="10" stroke-linecap="round" stroke-linejoin="round"/>
<path d="M195.539 575.046C195.539 575.046 194.381 571.846 191.552 574.269C188.721 576.694 186.434 584.067 187.086 593.294C187.738 602.52 187.957 640.92 189.288 645.771C190.618 650.622 191.846 655.178 195.233 655.641C198.622 656.105 209.982 655.604 217.994 653.209C226.005 650.817 226.749 641.436 225.159 633.123C223.567 624.81 219.621 617.706 217.005 615.454C214.391 613.202 213.206 610.513 210.926 604.426C208.647 598.339 203.654 582.974 202.01 580.67" fill="#111311"/>
<path d="M195.539 575.046C195.539 575.046 194.381 571.846 191.552 574.269C188.721 576.694 186.434 584.067 187.086 593.294C187.738 602.52 187.957 640.92 189.288 645.771C190.618 650.622 191.846 655.178 195.233 655.641C198.622 656.105 209.982 655.604 217.994 653.209C226.005 650.817 226.749 641.436 225.159 633.123C223.567 624.81 219.621 617.706 217.005 615.454C214.391 613.202 213.206 610.513 210.926 604.426C208.647 598.339 203.654 582.974 202.01 580.67" stroke="#111311" stroke-width="0.853263" stroke-miterlimit="10" stroke-linecap="round" stroke-linejoin="round"/>
<path d="M202.474 629.01C201.699 629.58 200.907 630.084 200.104 630.49" stroke="#111311" stroke-width="0.853263" stroke-miterlimit="10" stroke-linecap="round" stroke-linejoin="round"/>
<path d="M212.432 617.842C212.432 617.842 208.956 623.305 204.487 627.37" stroke="#111311" stroke-width="0.853263" stroke-miterlimit="10" stroke-linecap="round" stroke-linejoin="round"/>
<path d="M257.986 613.221C257.986 613.221 237.264 613.305 231.99 612.655C226.716 612.006 219.552 608.382 219.552 608.382C219.552 608.382 210.98 603.596 209.154 602.392C207.329 601.188 202.734 600.751 201.409 601.213C200.084 601.675 197.014 603.736 197.254 605.229C197.494 606.722 199.289 605.864 200.214 605.217C201.139 604.57 202.602 604.12 202.602 604.12L206.935 605.562L207.627 606.806C207.627 606.806 201.358 607.385 200.469 607.741C199.579 608.098 196.536 613.396 195.976 614.52C195.415 615.643 195.851 615.537 196.686 615.616L197.522 615.696C197.522 615.696 196.819 617.982 197.619 618.352C198.419 618.722 199.605 618.247 199.605 618.247C199.605 618.247 200.455 619.358 200.873 619.398C201.291 619.438 205.91 617.377 206.66 617.007C207.409 616.638 213.238 618.516 214.769 618.662C216.303 618.808 222.169 619.22 222.169 619.22C222.169 619.22 249.267 630.331 252.957 631.271C256.646 632.21 259.171 632.304 261.097 628.076C263.023 623.847 261.117 614.107 257.986 613.221Z" fill="#9D9D9D" stroke="#111311" stroke-width="0.853263" stroke-miterlimit="10" stroke-linecap="round" stroke-linejoin="round"/>
<path d="M199.486 617.81C199.486 617.81 203.751 613.87 204.789 613.388C205.828 612.907 207.851 612.374 207.851 612.374" stroke="#111311" stroke-width="0.853263" stroke-miterlimit="10" stroke-linecap="round" stroke-linejoin="round"/>
<path d="M197.344 615.315L201.801 610.958L206.16 609.632" stroke="#111311" stroke-width="0.853263" stroke-miterlimit="10" stroke-linecap="round" stroke-linejoin="round"/>
<path d="M96.5559 497.638C96.5559 497.638 97.7138 498.333 99.5679 499.028C101.421 499.723 106.054 501.345 108.139 503.662C110.223 505.978 109.529 511.538 109.529 511.538" stroke="#111311" stroke-width="0.853263" stroke-miterlimit="10" stroke-linecap="round" stroke-linejoin="round"/>
<path d="M70.1087 516.909L68.2936 520.802" stroke="#111311" stroke-width="0.853263" stroke-miterlimit="10" stroke-linecap="round" stroke-linejoin="round"/>
<path d="M55.4788 504.681C55.4788 504.681 54.2152 510.649 52.9387 512.016C51.6622 513.384 49.634 515 50.3072 517.984C50.9813 520.968 54.914 522.832 54.902 523.33C54.8901 523.827 47.7705 525.195 47.9642 527.433C48.1587 529.671 50.082 532.406 50.082 532.406C50.082 532.406 44.8173 534.147 44.3719 537.131C43.9265 540.114 45.7192 543.098 45.6928 544.218C45.6655 545.336 42.4964 547.823 43.4436 549.813C44.389 551.802 46.6331 551.553 46.7491 551.926C46.8635 552.299 45.4573 553.915 45.4334 554.91C45.4086 555.904 46.1339 556.774 46.1339 556.774H88.1563L76.2379 494.611L60.4244 500.702L55.4788 504.681Z" fill="#21A038" stroke="#111311" stroke-width="0.853263" stroke-miterlimit="10" stroke-linecap="round" stroke-linejoin="round"/>
<path d="M112.408 645.755C112.408 645.755 121.075 665.48 122.213 670.322C123.35 675.164 123.89 696.717 122.086 705.111C118.8 720.397 109.383 734.879 109.383 734.879H61.648L51.8048 688.917L66.1806 644.14L112.408 645.755Z" fill="#9D9D9D" stroke="#111311" stroke-width="0.853263" stroke-miterlimit="10" stroke-linecap="round" stroke-linejoin="round"/>
<path d="M104.491 683.771L100.473 694.172L102.387 734.656" stroke="#111311" stroke-width="0.853263" stroke-miterlimit="10" stroke-linecap="round" stroke-linejoin="round"/>
<path d="M111.649 632.664C111.649 632.664 120.083 639.836 121.093 642.527C122.104 645.216 122.749 662.97 123.214 666.018C123.678 669.067 121.635 671.935 121.635 671.935L114.364 653.824C114.364 653.824 113.663 645.755 113.497 645.216C113.33 644.678 112 640.374 112 640.374L111.649 632.664Z" fill="#9D9D9D" stroke="#111311" stroke-width="0.853263" stroke-miterlimit="10" stroke-linecap="round" stroke-linejoin="round"/>
<path d="M118.601 649.162C118.601 649.162 118.702 652.389 119.004 654.721C119.306 657.052 120.277 661.356 118.279 662.432" fill="#9D9D9D"/>
<path d="M118.601 649.162C118.601 649.162 118.702 652.389 119.004 654.721C119.306 657.052 120.277 661.356 118.279 662.432" stroke="#111311" stroke-width="0.853263" stroke-miterlimit="10" stroke-linecap="round" stroke-linejoin="round"/>
<path d="M81.0445 556.27L92.5124 556.628L100.711 556.899L110.245 564.878C110.245 564.878 118.246 604.688 118.902 607.199C119.558 609.709 112.108 628.539 111.526 630.331C110.945 632.125 112.407 645.754 112.407 645.754C112.407 645.754 108.738 649.161 96.864 650.775C84.9891 652.388 71.3028 647.368 71.3028 647.368C71.3028 647.368 80.3056 623.696 82.228 610.964C82.228 610.964 83.9004 586.397 83.3526 579.404C82.8048 572.409 81.0445 556.27 81.0445 556.27Z" fill="#21A038" stroke="#111311" stroke-width="0.853263" stroke-miterlimit="10" stroke-linecap="round" stroke-linejoin="round"/>
<path d="M109.652 615.195L91.087 624.611" stroke="#111311" stroke-width="0.853263" stroke-miterlimit="10" stroke-linecap="round" stroke-linejoin="round"/>
<path d="M108.575 618.424L99.966 622.728" stroke="#111311" stroke-width="0.853263" stroke-miterlimit="10" stroke-linecap="round" stroke-linejoin="round"/>
<path d="M77.9036 543.088C77.9036 543.088 84.8013 566.97 85.693 571.197C86.5855 575.425 95.4168 580.397 100.829 577.662C106.241 574.927 104.503 569.705 103.588 566.473C102.671 563.24 100.711 556.899 100.711 556.899L102.798 537.504C102.798 537.504 96.2462 546.207 93.8596 547.201C91.473 548.196 77.9036 543.088 77.9036 543.088Z" fill="#9D9D9D" stroke="#111311" stroke-width="0.853263" stroke-miterlimit="10" stroke-linecap="round" stroke-linejoin="round"/>
<path d="M90.8083 549.371L99.847 558.093L102.067 539.381L90.8083 549.371Z" fill="#111311" stroke="#111311" stroke-width="0.853263" stroke-miterlimit="10" stroke-linecap="round" stroke-linejoin="round"/>
<path d="M100.164 557.142L99.6889 565.704" stroke="#111311" stroke-width="0.853263" stroke-miterlimit="10" stroke-linecap="round" stroke-linejoin="round"/>
<path d="M100.773 554.926C100.773 554.926 113.546 591.418 114.96 599.667C116.374 607.916 116.689 609.71 116.799 612.579C116.909 615.447 114.604 621.725 114.604 621.725C114.604 621.725 123.661 610.606 123.717 600.923C123.772 591.238 117.194 561.989 114.124 560.216C101.92 553.168 100.773 554.926 100.773 554.926Z" fill="#111311" stroke="#111311" stroke-width="0.853263" stroke-miterlimit="10" stroke-linecap="round" stroke-linejoin="round"/>
<path d="M112.63 572.918C112.63 572.918 118.084 589.332 117.43 601.575" stroke="#111311" stroke-width="0.853263" stroke-miterlimit="10" stroke-linecap="round" stroke-linejoin="round"/>
<path d="M69.2899 514.504L75.0844 506.298L101.9 533.526C101.9 533.526 100.27 549.44 100.258 549.937C100.246 550.435 101.92 553.169 101.92 553.169C101.92 553.169 102.652 553.791 103.252 554.662C103.852 555.532 103.231 555.532 103.077 556.775C102.922 558.018 103.777 558.64 104.384 559.263C104.99 559.884 106.467 560.506 107.325 561.003C108.183 561.5 107.41 562.618 106.762 563.738C106.113 564.857 105.191 566.971 106.256 569.208C107.321 571.446 107.951 571.073 109.774 572.813C111.596 574.554 108.947 576.171 108.947 576.171C108.947 576.171 110.323 575.797 111.451 575.425C112.579 575.051 113.107 573.808 112.631 572.938C112.154 572.067 111.229 569.208 111.614 568.711C111.999 568.214 115.522 566.473 116.55 565.105C117.578 563.738 116.465 563.49 117.347 562.992C118.23 562.495 119.998 561.375 120.413 559.635C120.828 557.895 118.766 555.78 119.402 555.159C120.039 554.537 122.43 550.709 122.458 549.591C122.484 548.471 121.068 546.579 121.068 546.579C121.068 546.579 121.991 545.835 122.576 542.229C123.161 538.624 120.328 537.504 120.128 535.515C119.928 533.526 122.854 530.791 122.898 523.828C122.942 516.866 111.431 514.753 111.079 513.882C110.728 513.011 111.134 511.644 110.93 509.779C110.727 507.914 106.206 504.682 106.206 504.682C106.206 504.682 106.747 502.817 107.151 501.573C107.554 500.33 106.96 499.212 104.77 497.222C102.58 495.233 91.9901 485.908 87.5387 484.913C83.0863 483.919 75.6339 488.768 74.7508 489.265C73.8685 489.763 66.824 488.022 64.6687 489.763C62.5125 491.502 61.8188 494.487 61.2906 495.73C60.7633 496.973 58.8989 496.973 57.7495 498.217C56.6002 499.46 54.7222 510.277 54.7222 510.277" fill="#21A038"/>
<path d="M69.2899 514.504L75.0844 506.298L101.9 533.526C101.9 533.526 100.27 549.44 100.258 549.937C100.246 550.435 101.92 553.169 101.92 553.169C101.92 553.169 102.652 553.791 103.252 554.662C103.852 555.532 103.231 555.532 103.077 556.775C102.922 558.018 103.777 558.64 104.384 559.263C104.99 559.884 106.467 560.506 107.325 561.003C108.183 561.5 107.41 562.618 106.762 563.738C106.113 564.857 105.191 566.971 106.256 569.208C107.321 571.446 107.951 571.073 109.774 572.813C111.596 574.554 108.947 576.171 108.947 576.171C108.947 576.171 110.323 575.797 111.451 575.425C112.579 575.051 113.107 573.808 112.631 572.938C112.154 572.067 111.229 569.208 111.614 568.711C111.999 568.214 115.522 566.473 116.55 565.105C117.578 563.738 116.465 563.49 117.347 562.992C118.23 562.495 119.998 561.375 120.413 559.635C120.828 557.895 118.766 555.78 119.402 555.159C120.039 554.537 122.43 550.709 122.458 549.591C122.484 548.471 121.068 546.579 121.068 546.579C121.068 546.579 121.991 545.835 122.576 542.229C123.161 538.624 120.328 537.504 120.128 535.515C119.928 533.526 122.854 530.791 122.898 523.828C122.942 516.866 111.431 514.753 111.079 513.882C110.728 513.011 111.134 511.644 110.93 509.779C110.727 507.914 106.206 504.682 106.206 504.682C106.206 504.682 106.747 502.817 107.151 501.573C107.554 500.33 106.96 499.212 104.77 497.222C102.58 495.233 91.9901 485.908 87.5387 484.913C83.0863 483.919 75.6339 488.768 74.7508 489.265C73.8685 489.763 66.824 488.022 64.6687 489.763C62.5125 491.502 61.8188 494.487 61.2906 495.73C60.7633 496.973 58.8989 496.973 57.7495 498.217C56.6002 499.46 54.7222 510.277 54.7222 510.277" stroke="#111311" stroke-width="0.853263" stroke-miterlimit="10" stroke-linecap="round" stroke-linejoin="round"/>
<path d="M80.3243 552.236C80.3243 552.236 93.305 597.873 93.8784 603.792C94.4526 609.709 74.1458 648.444 70.0041 656.513C65.8632 664.583 56.8391 689.15 55.3791 697.579C53.9192 706.007 52.7793 716.049 52.7793 716.049C52.7793 716.049 41.9667 710.849 34.9025 706.366C27.8384 701.883 26.6438 699.372 27.2035 698.476C27.7633 697.579 30.7233 686.461 30.7233 686.461C30.7233 686.461 24.6122 679.646 24.9876 678.928C25.3639 678.211 39.2533 630.511 39.2533 630.511C39.2533 630.511 42.9087 553.76 44.3439 553.76C45.7782 553.76 80.3243 552.236 80.3243 552.236Z" fill="#111311" stroke="#111311" stroke-width="0.853263" stroke-miterlimit="10" stroke-linecap="round" stroke-linejoin="round"/>
<path d="M79.0136 574.028L93.8786 603.792" stroke="#111311" stroke-width="0.853263" stroke-miterlimit="10" stroke-linecap="round" stroke-linejoin="round"/>
<path d="M52.9387 554.297C52.9387 554.297 42.2311 552.145 40.3684 555.014C38.5049 557.884 22.0838 606.481 21.0787 610.964C20.0727 615.447 50.8294 648.622 50.8294 648.622L66.6873 638.042L47.9599 611.681L58.1982 574.023" fill="#111311"/>
<path d="M52.9387 554.297C52.9387 554.297 42.2311 552.145 40.3684 555.014C38.5049 557.884 22.0838 606.481 21.0787 610.964C20.0727 615.447 50.8294 648.622 50.8294 648.622L66.6873 638.042L47.9599 611.681L58.1982 574.023" stroke="#111311" stroke-width="0.853263" stroke-miterlimit="10" stroke-linecap="round" stroke-linejoin="round"/>
<path d="M55.5093 585.727L47.8649 609.356L64.9677 634.994" stroke="#111311" stroke-width="0.853263" stroke-miterlimit="10" stroke-linecap="round" stroke-linejoin="round"/>
<path d="M57.594 578.315L56.4985 581.809" stroke="#111311" stroke-width="0.853263" stroke-miterlimit="10" stroke-linecap="round" stroke-linejoin="round"/>
<path d="M64.8861 634.992L47.763 649.25L53.5885 656.326L71.6041 642.437L64.8861 634.992Z" fill="#9D9D9D" stroke="#111311" stroke-width="0.853263" stroke-miterlimit="10" stroke-linecap="round" stroke-linejoin="round"/>
<path d="M70.3317 643.064C70.3317 643.064 84.6537 658.844 86.2502 659.562C87.8466 660.28 90.9918 663.687 91.8493 665.3C92.7068 666.914 93.9099 669.066 95.1429 669.962C96.3767 670.859 96.5303 671.935 94.3647 672.474C92.2 673.011 90.223 673.191 89.0284 670.68C87.8347 668.17 85.9183 665.838 85.9183 665.838L73.6816 674.984C73.6816 674.984 71.0476 665.3 70.737 663.327C70.4256 661.355 69.7865 658.127 69.7865 658.127L61.5499 650.237L70.3317 643.064Z" fill="#9D9D9D" stroke="#111311" stroke-width="0.853263" stroke-miterlimit="10" stroke-linecap="round" stroke-linejoin="round"/>
<path d="M50.2647 541.233C50.2647 541.233 49.0778 549.188 49.757 551.926C50.4763 554.822 56.3049 554.303 55.1095 558.149C54.7238 559.389 53.2178 560.712 53.6888 562.119C54.1718 563.56 56.0686 563.642 57.1224 564.46C59.0584 565.964 58.3656 567.578 59.0234 569.707C59.4996 571.245 61.1378 571.777 61.5807 572.997C62.1063 574.442 61.0986 575.345 62.7027 576.916C65.4954 579.652 67.597 580.148 67.9759 579.9C68.3547 579.652 67.6243 579.03 69.3855 578.159C71.1474 577.289 74.5434 575.673 73.9555 574.305C73.3762 572.959 72.7968 571.613 72.7832 571.58C73.6031 573.468 76.1493 571.561 76.8447 570.567C78.4335 568.299 76.0042 565.856 76.2884 563.405C76.6024 560.688 79.6622 559.288 80.0043 556.55C80.3388 553.869 77.5546 552.023 78.1613 549.564C78.4369 548.445 78.5913 547.201 78.5913 547.201C78.5913 547.201 77.7816 544.715 76.5588 543.844C75.337 542.974 74.924 539.493 74.8301 538.25" fill="#21A038"/>
<path d="M50.2647 541.233C50.2647 541.233 49.0778 549.188 49.757 551.926C50.4763 554.822 56.3049 554.303 55.1095 558.149C54.7238 559.389 53.2178 560.712 53.6888 562.119C54.1718 563.56 56.0686 563.642 57.1224 564.46C59.0584 565.964 58.3656 567.578 59.0234 569.707C59.4996 571.245 61.1378 571.777 61.5807 572.997C62.1063 574.442 61.0986 575.345 62.7027 576.916C65.4954 579.652 67.597 580.148 67.9759 579.9C68.3547 579.652 67.6243 579.03 69.3855 578.159C71.1474 577.289 74.5434 575.673 73.9555 574.305C73.3762 572.959 72.7968 571.613 72.7832 571.58C73.6031 573.468 76.1493 571.561 76.8447 570.567C78.4335 568.299 76.0042 565.856 76.2884 563.405C76.6024 560.688 79.6622 559.288 80.0043 556.55C80.3388 553.869 77.5546 552.023 78.1613 549.564C78.4369 548.445 78.5913 547.201 78.5913 547.201C78.5913 547.201 77.7816 544.715 76.5588 543.844C75.337 542.974 74.924 539.493 74.8301 538.25" stroke="#111311" stroke-width="0.853263" stroke-miterlimit="10" stroke-linecap="round" stroke-linejoin="round"/>
<path d="M72.6304 501.813C72.6304 501.813 62.579 516.427 63.3478 519.519C64.1157 522.611 71.7857 542.425 74.4078 544.393C77.0298 546.36 87.5984 550.998 91.1078 551.139C94.6173 551.279 97.1805 549.874 98.6447 547.484C100.108 545.096 105.683 535.399 105.734 533.291C105.785 531.183 101.286 510.953 100.45 510.672C99.614 510.39 72.6304 501.813 72.6304 501.813Z" fill="#9D9D9D" stroke="black" stroke-width="0.853263" stroke-miterlimit="10" stroke-linecap="round" stroke-linejoin="round"/>
<path d="M87.99 517.34C87.99 517.34 87.7008 521.241 88.06 522.508C88.4192 523.776 91.7214 528.359 91.799 529.139C91.8784 529.919 90.5916 530.699 88.8194 531.382" stroke="#111311" stroke-width="0.853263" stroke-miterlimit="10" stroke-linecap="round" stroke-linejoin="round"/>
<path d="M65.304 525.559C65.304 525.559 63.1048 523.588 61.926 525.978C60.7471 528.368 61.6545 531.602 65.3812 534.276C69.1089 536.95 69.9509 536.951 69.9509 536.951L65.304 525.559Z" fill="#9D9D9D" stroke="#111311" stroke-width="0.853263" stroke-miterlimit="10" stroke-linecap="round" stroke-linejoin="round"/>
<path d="M102.085 515.724C102.085 515.724 104.076 514.74 104.999 517.27C105.921 519.799 104.5 526.265 104.5 526.265L102.085 515.724Z" fill="#9D9D9D" stroke="#111311" stroke-width="0.853263" stroke-miterlimit="10" stroke-linecap="round" stroke-linejoin="round"/>
<path d="M83.0264 536.3C83.0264 536.3 89.4992 535.958 91.0683 535.196C92.6367 534.431 95.3273 531.228 95.3273 531.228C95.3273 531.228 95.5001 538.42 92.1072 539.567C89.7228 540.373 83.0264 536.3 83.0264 536.3Z" fill="#9D9D9D" stroke="#111311" stroke-width="0.853263" stroke-miterlimit="10" stroke-linecap="round" stroke-linejoin="round"/>
<path d="M72.4201 521.142C72.4201 521.142 72.8305 517.363 79.3252 516.791L72.4201 521.142Z" fill="#9D9D9D"/>
<path d="M72.4201 521.142C72.4201 521.142 72.8305 517.363 79.3252 516.791" stroke="#111311" stroke-width="0.853263" stroke-miterlimit="10" stroke-linecap="round" stroke-linejoin="round"/>
<path d="M87.8946 514.2C87.8946 514.2 91.8852 510.622 96.1277 514.901L87.8946 514.2Z" fill="#9D9D9D"/>
<path d="M87.8946 514.2C87.8946 514.2 91.8852 510.622 96.1277 514.901" stroke="#111311" stroke-width="0.853263" stroke-miterlimit="10" stroke-linecap="round" stroke-linejoin="round"/>
<path d="M80.3615 523.057C80.7216 524.217 80.3906 525.347 79.6205 525.584C78.8506 525.819 77.9337 525.07 77.5729 523.911C77.2126 522.75 77.5435 521.619 78.3136 521.383C79.0835 521.148 80.0004 521.896 80.3615 523.057Z" fill="#111311"/>
<path d="M93.6277 519.381C93.9885 520.541 93.6565 521.672 92.8868 521.908C92.1174 522.144 91.2004 521.394 90.8396 520.234C90.4783 519.074 90.81 517.943 91.5797 517.707C92.3494 517.472 93.2669 518.22 93.6277 519.381Z" fill="#111311"/>
</g>
<defs>
<filter id="filter0_f_7035_434" x="-383" y="205.851" width="822.149" height="822.15" filterUnits="userSpaceOnUse" color-interpolation-filters="sRGB">
<feFlood flood-opacity="0" result="BackgroundImageFix"/>
<feBlend mode="normal" in="SourceGraphic" in2="BackgroundImageFix" result="shape"/>
<feGaussianBlur stdDeviation="163" result="effect1_foregroundBlur_7035_434"/>
</filter>
<filter id="filter1_f_7035_434" x="-101.95" y="0" width="993.236" height="993.236" filterUnits="userSpaceOnUse" color-interpolation-filters="sRGB">
<feFlood flood-opacity="0" result="BackgroundImageFix"/>
<feBlend mode="normal" in="SourceGraphic" in2="BackgroundImageFix" result="shape"/>
<feGaussianBlur stdDeviation="163" result="effect1_foregroundBlur_7035_434"/>
</filter>
<filter id="filter2_f_7035_434" x="-96.1067" y="293.411" width="559.994" height="559.994" filterUnits="userSpaceOnUse" color-interpolation-filters="sRGB">
<feFlood flood-opacity="0" result="BackgroundImageFix"/>
<feBlend mode="normal" in="SourceGraphic" in2="BackgroundImageFix" result="shape"/>
<feGaussianBlur stdDeviation="100" result="effect1_foregroundBlur_7035_434"/>
</filter>
<clipPath id="clip0_7035_434">
<rect width="426.632" height="386" fill="white" transform="translate(-29 344)"/>
</clipPath>
</defs>
</svg>
